# xmcd CD database file
#
# Track frame offsets:
#	150
#	11958
#	29902
#	48249
#	72145
#	84439
#	100295
#	113711
#	128904
#	144242
#	163199
#	174730
#
# Disc length: 2411 seconds
#
# Revision: 1
# Processed by: cddbd v1.5.1PL0 Copyright (c) Steve Scherf et al.
# Submitted via: CDex 1.51
#
DISCID=a509690c
DTITLE=Randy Garibay - Invisible Society
DYEAR=2001
DGENRE=Blues
TTITLE0=Invisible Society
TTITLE1=Where are They now?
TTITLE2=Lindo San Anto
TTITLE3=At Last
TTITLE4=Los Trabojos Blues
TTITLE5=Mr. DJ
TTITLE6=Fannie Mae
TTITLE7=Dime como le Haces
TTITLE8=Brown-Eyed Bluesman
TTITLE9=Love ain't nothin' but the Blues
TTITLE10=Leave that Little Girl alone
TTITLE11=A Cold Night in Afghanistan
EXTD=Randy Garibay - Invisible Society YEAR: 2001
EXTT0=
EXTT1=
EXTT2=
EXTT3=
EXTT4=
EXTT5=
EXTT6=
EXTT7=
EXTT8=
EXTT9=
EXTT10=
EXTT11=
PLAYORDER=
